<?xml version="1.0" standalone="no"?>
<!DOCTYPE svg PUBLIC "-//W3C//DTD SVG 20010904//EN"
 "http://www.w3.org/TR/2001/REC-SVG-20010904/DTD/svg10.dtd">
<svg version="1.0" xmlns="http://www.w3.org/2000/svg"
 width="600.000000pt" height="541.000000pt" viewBox="0 0 600.000000 541.000000"
 preserveAspectRatio="xMidYMid meet">
<metadata>
Created by potrace 1.15, written by Peter Selinger 2001-2017
</metadata>
<g transform="translate(0.000000,541.000000) scale(0.100000,-0.100000)"
fill="white" stroke="none">
<path d="M1700 5400 c0 -6 -27 -10 -60 -10 -47 0 -60 -3 -60 -15 0 -11 -12
-15 -45 -15 -33 0 -45 -4 -45 -15 0 -10 -10 -15 -30 -15 -20 0 -30 -5 -30 -15
0 -10 -10 -15 -30 -15 -20 0 -30 -5 -30 -15 0 -10 -10 -15 -30 -15 -20 0 -30
-5 -30 -15 0 -8 -7 -15 -15 -15 -8 0 -15 -7 -15 -15 0 -10 -10 -15 -30 -15
-20 0 -30 -5 -30 -15 0 -8 -7 -15 -15 -15 -8 0 -15 -7 -15 -15 0 -8 -7 -15
-15 -15 -8 0 -15 -7 -15 -15 0 -8 -7 -15 -15 -15 -8 0 -15 -7 -15 -15 0 -8 -8
-15 -17 -15 -15 0 -780 -749 -792 -775 -2 -5 -10 -16 -18 -23 -7 -7 -13 -20
-13 -28 0 -8 -7 -14 -15 -14 -8 0 -15 -7 -15 -15 0 -8 -7 -15 -15 -15 -8 0
-15 -7 -15 -15 0 -8 -7 -15 -15 -15 -10 0 -15 -10 -15 -30 0 -20 -5 -30 -15
-30 -8 0 -15 -7 -15 -15 0 -8 -7 -15 -15 -15 -10 0 -15 -10 -15 -30 0 -20 -5
-30 -15 -30 -10 0 -15 -10 -15 -30 0 -20 -5 -30 -15 -30 -10 0 -15 -10 -15
-30 0 -20 -5 -30 -15 -30 -11 0 -15 -12 -15 -45 0 -33 -4 -45 -15 -45 -12 0
-15 -13 -15 -60 0 -33 -4 -60 -10 -60 -6 0 -10 -100 -10 -280 0 -180 4 -280
10 -280 6 0 10 -25 10 -55 0 -40 4 -57 15 -61 9 -4 15 -19 15 -35 0 -19 5 -29
15 -29 10 0 15 -10 15 -34 0 -18 7 -39 15 -46 8 -7 15 -23 15 -37 0 -13 7 -26
15 -29 8 -4 15 -12 15 -20 0 -8 7 -14 15 -14 10 0 15 -10 15 -30 0 -20 5 -30
15 -30 8 0 15 -7 15 -15 0 -8 7 -15 15 -15 10 0 15 -10 15 -30 0 -20 5 -30 15
-30 8 0 15 -7 15 -15 0 -8 7 -15 15 -15 8 0 15 -7 15 -15 0 -8 7 -15 15 -15 8
0 15 -7 15 -15 0 -8 7 -15 15 -15 8 0 15 -7 15 -15 0 -8 7 -15 15 -15 8 0 15
-7 15 -15 0 -8 7 -15 15 -15 8 0 15 -7 15 -15 0 -8 7 -15 15 -15 8 0 15 -7 15
-15 0 -8 7 -15 15 -15 8 0 15 -7 15 -15 0 -8 7 -15 15 -15 8 0 15 -7 15 -15 0
-8 7 -15 15 -15 8 0 15 -7 15 -15 0 -8 7 -15 15 -15 8 0 15 -7 15 -15 0 -8 7
-15 15 -15 8 0 15 -7 15 -15 0 -8 7 -15 15 -15 8 0 15 -7 15 -15 0 -8 7 -15
15 -15 8 0 15 -7 15 -15 0 -8 7 -15 15 -15 8 0 15 -7 15 -15 0 -8 7 -15 15
-15 8 0 15 -7 15 -15 0 -8 7 -15 15 -15 8 0 15 -7 15 -15 0 -8 7 -15 15 -15
11 0 15 -12 15 -45 0 -33 4 -45 15 -45 12 0 15 -13 15 -60 0 -47 3 -60 15 -60
9 0 15 -9 15 -25 0 -32 31 -94 48 -95 7 0 12 -13 12 -30 0 -20 5 -30 15 -30 8
0 15 -7 15 -15 0 -8 7 -15 15 -15 8 0 15 -7 15 -15 0 -8 7 -15 15 -15 8 0 15
-7 15 -15 0 -8 7 -15 15 -15 8 0 15 -7 15 -15 0 -8 7 -15 15 -15 8 0 15 -7 15
-15 0 -10 10 -15 30 -15 20 0 30 -5 30 -15 0 -10 10 -15 30 -15 20 0 30 -5 30
-15 0 -11 12 -15 45 -15 33 0 45 -4 45 -15 0 -11 12 -15 45 -15 l45 0 0 -40
c0 -27 5 -43 15 -46 10 -4 15 -20 15 -45 0 -26 5 -42 15 -45 9 -4 15 -19 15
-35 0 -19 5 -29 15 -29 8 0 15 -7 15 -15 0 -8 7 -15 15 -15 10 0 15 -10 15
-30 0 -20 5 -30 15 -30 8 0 15 -7 15 -15 0 -8 7 -15 15 -15 8 0 15 -7 15 -15
0 -8 7 -15 15 -15 8 0 15 -7 15 -15 0 -8 7 -15 15 -15 8 0 15 -7 15 -15 0 -10
10 -15 30 -15 20 0 30 -5 30 -15 0 -10 10 -15 30 -15 20 0 30 -5 30 -15 0 -10
10 -15 29 -15 16 0 31 -6 35 -15 3 -10 19 -15 46 -15 32 0 40 -4 40 -19 0 -10
7 -24 15 -31 8 -7 15 -27 15 -45 0 -18 7 -38 15 -45 8 -7 15 -25 15 -41 0 -19
5 -29 15 -29 8 0 15 -7 15 -15 0 -8 7 -15 15 -15 10 0 15 -10 15 -30 0 -20 5
-30 15 -30 8 0 15 -7 15 -15 0 -8 7 -15 15 -15 8 0 15 -7 15 -15 0 -8 7 -15
15 -15 8 0 15 -7 15 -15 0 -8 8 -15 19 -15 10 0 24 -7 31 -15 7 -8 19 -15 26
-15 8 0 14 -7 14 -15 0 -10 10 -15 30 -15 20 0 30 -5 30 -15 0 -10 10 -15 30
-15 20 0 30 -5 30 -15 0 -10 10 -15 34 -15 18 0 39 -7 46 -15 7 -8 25 -15 41
-15 19 0 29 -5 29 -15 0 -8 7 -15 15 -15 10 0 15 -10 15 -34 0 -19 4 -38 10
-41 5 -3 20 -28 32 -55 13 -28 29 -50 35 -50 7 0 13 -7 13 -15 0 -8 7 -15 15
-15 8 0 15 -7 15 -15 0 -8 7 -15 15 -15 8 0 15 -7 15 -15 0 -8 7 -15 15 -15 8
0 15 -7 15 -15 0 -8 7 -15 15 -15 8 0 15 -7 15 -15 0 -10 10 -15 30 -15 20 0
30 -5 30 -15 0 -10 10 -15 34 -15 21 0 36 -6 40 -15 4 -13 37 -15 206 -15 171
0 200 2 200 15 0 11 11 15 39 15 25 0 41 5 45 15 3 8 16 15 30 15 13 0 26 7
30 15 3 8 12 15 21 15 8 0 15 7 15 15 0 8 7 15 15 15 8 0 15 7 15 15 0 8 6 15
14 15 8 0 16 7 20 15 3 8 15 15 26 15 11 0 20 7 20 15 0 8 7 15 15 15 8 0 15
7 15 15 0 8 4 15 9 15 12 0 261 246 261 258 0 5 7 15 15 22 8 7 15 21 15 31 0
12 7 19 20 19 11 0 20 7 20 15 0 8 7 15 15 15 8 0 15 7 15 15 0 8 5 15 10 15
6 0 10 7 10 15 0 13 22 15 139 15 114 0 140 3 145 15 4 10 20 15 51 15 31 0
47 5 51 15 4 8 15 15 25 15 10 0 19 7 19 15 0 9 9 15 25 15 14 0 28 7 31 15 4
8 12 15 20 15 8 0 14 7 14 15 0 8 7 15 15 15 8 0 15 7 15 15 0 8 7 15 15 15 8
0 15 5 15 11 0 6 7 17 15 25 8 9 15 24 15 34 0 10 7 20 15 24 8 3 15 16 15 30
0 13 5 26 12 28 7 3 14 32 16 76 l4 72 43 0 c26 0 47 6 55 15 8 9 29 15 55 15
29 0 45 5 49 15 3 8 17 15 31 15 16 0 25 6 25 15 0 8 9 15 20 15 11 0 20 7 20
15 0 9 9 15 25 15 16 0 25 6 25 15 0 8 9 15 20 15 11 0 20 5 20 10 0 6 11 23
25 38 14 15 28 36 31 47 4 10 13 25 20 33 8 7 14 22 14 32 0 10 5 22 10 25 6
3 10 35 10 70 0 54 3 66 20 75 12 6 20 21 20 35 0 24 3 25 60 25 47 0 60 3 60
15 0 11 11 15 40 15 27 0 43 5 46 15 4 8 17 15 30 15 14 0 27 7 30 15 4 8 12
15 20 15 8 0 14 7 14 15 0 8 9 15 20 15 11 0 23 7 26 15 4 8 12 15 19 15 7 0
16 13 20 30 4 16 13 30 21 30 8 0 14 7 14 15 0 8 7 15 15 15 10 0 15 10 15 30
0 20 5 30 15 30 11 0 15 12 15 44 0 30 5 46 15 50 12 4 15 30 15 141 0 111 -3
137 -15 141 -10 4 -15 20 -15 45 0 26 -6 41 -17 48 -17 10 -17 10 0 11 9 0 17
7 17 15 0 8 7 15 15 15 8 0 15 7 15 15 0 8 7 15 15 15 8 0 15 7 15 15 0 8 7
15 15 15 8 0 15 7 15 15 0 8 7 15 15 15 8 0 15 7 15 15 0 8 7 15 15 15 8 0 15
4 15 9 0 6 11 22 25 37 14 15 28 38 31 51 4 13 12 23 20 23 8 0 14 8 14 19 0
10 7 24 15 31 8 7 15 19 15 26 0 8 4 14 10 14 5 0 13 12 16 27 4 15 13 34 21
41 7 7 13 22 13 32 0 10 5 20 10 22 6 2 13 21 17 43 3 22 12 45 19 52 19 19
27 199 22 501 -4 242 -6 276 -21 287 -10 7 -17 26 -17 43 0 17 -7 37 -15 46
-8 8 -15 24 -15 36 0 11 -7 23 -15 26 -8 4 -15 17 -15 30 0 14 -7 27 -15 30
-8 4 -15 14 -15 24 0 10 -7 25 -15 34 -8 8 -15 19 -15 25 0 6 -5 11 -11 11 -5
0 -15 14 -20 30 -6 17 -15 30 -20 30 -5 0 -9 7 -9 15 0 8 -7 15 -15 15 -8 0
-15 7 -15 15 0 8 -7 15 -15 15 -8 0 -15 7 -15 15 0 8 -7 15 -15 15 -8 0 -15 6
-15 13 0 16 -781 797 -798 797 -6 0 -12 7 -12 15 0 8 -7 15 -15 15 -8 0 -15 7
-15 15 0 8 -7 15 -15 15 -8 0 -15 7 -15 15 0 8 -6 15 -14 15 -8 0 -16 7 -20
15 -3 8 -12 15 -20 15 -7 0 -16 7 -20 15 -3 8 -14 15 -25 15 -10 0 -21 7 -25
15 -3 8 -17 15 -31 15 -16 0 -25 6 -25 15 0 10 -10 15 -30 15 -20 0 -30 5 -30
15 0 10 -10 15 -29 15 -16 0 -31 6 -35 15 -3 10 -19 15 -45 15 -25 0 -41 5
-45 15 -4 10 -20 15 -51 15 -25 0 -45 5 -45 10 0 6 -105 10 -295 10 -190 0
-295 -4 -295 -10 0 -5 -20 -10 -45 -10 -33 0 -45 -4 -45 -15 0 -11 -12 -15
-45 -15 -33 0 -45 -4 -45 -15 0 -11 -11 -15 -40 -15 -27 0 -43 -5 -46 -15 -4
-9 -19 -15 -35 -15 -19 0 -29 -5 -29 -15 0 -8 -7 -15 -15 -15 -8 0 -15 -7 -15
-15 0 -10 -10 -15 -30 -15 -20 0 -30 -5 -30 -15 0 -8 -7 -15 -15 -15 -8 0 -15
-7 -15 -15 0 -9 -9 -15 -25 -15 -14 0 -28 -7 -31 -15 -4 -8 -12 -15 -20 -15
-8 0 -14 -7 -14 -15 0 -8 -7 -15 -15 -15 -8 0 -15 -7 -15 -15 0 -8 -7 -15 -15
-15 -8 0 -15 -7 -15 -15 0 -8 -7 -15 -15 -15 -8 0 -15 -7 -15 -15 0 -8 -7 -15
-15 -15 -8 0 -15 -7 -15 -15 0 -8 -7 -15 -15 -15 -8 0 -15 -7 -15 -15 0 -8 -7
-15 -15 -15 -8 0 -15 -7 -15 -15 0 -8 -7 -15 -15 -15 -8 0 -15 7 -15 15 0 8
-7 15 -15 15 -8 0 -15 7 -15 15 0 8 -7 15 -15 15 -8 0 -15 7 -15 15 0 8 -7 15
-15 15 -8 0 -15 7 -15 15 0 8 -7 15 -15 15 -8 0 -15 7 -15 15 0 8 -7 15 -15
15 -8 0 -15 7 -15 15 0 8 -7 15 -15 15 -8 0 -15 7 -15 15 0 8 -7 15 -15 15 -8
0 -15 4 -15 9 0 10 -38 34 -72 47 -10 3 -18 13 -18 20 0 8 -9 14 -19 14 -10 0
-21 7 -25 15 -3 8 -14 15 -25 15 -10 0 -21 7 -25 15 -3 8 -17 15 -31 15 -14 0
-28 7 -31 15 -4 9 -19 15 -35 15 -19 0 -29 5 -29 15 0 11 -12 15 -45 15 -33 0
-45 4 -45 15 0 12 -13 15 -55 15 -30 0 -55 5 -55 10 0 6 -102 10 -285 10 -183
0 -285 -4 -285 -10z m450 -345 c0 -11 12 -15 45 -15 33 0 45 -4 45 -15 0 -11
12 -15 45 -15 33 0 45 -4 45 -15 0 -10 10 -15 30 -15 20 0 30 -5 30 -15 0 -10
10 -15 30 -15 20 0 30 -5 30 -15 0 -8 7 -15 15 -15 8 0 15 -7 15 -15 0 -8 7
-15 15 -15 8 0 15 -7 15 -15 0 -8 6 -15 14 -15 8 0 16 -7 20 -15 3 -8 12 -15
19 -15 19 0 157 -154 157 -174 0 -9 -7 -16 -15 -16 -8 0 -15 -7 -15 -15 0 -8
-7 -15 -15 -15 -8 0 -15 -7 -15 -15 0 -8 -7 -15 -15 -15 -8 0 -15 -7 -15 -15
0 -8 -7 -15 -15 -15 -8 0 -15 -7 -15 -15 0 -8 -7 -15 -15 -15 -8 0 -15 -7 -15
-15 0 -8 -7 -15 -15 -15 -8 0 -15 -7 -15 -15 0 -8 -7 -15 -15 -15 -8 0 -15 -7
-15 -15 0 -8 -7 -15 -15 -15 -8 0 -15 -7 -15 -15 0 -8 -7 -15 -15 -15 -8 0
-15 -7 -15 -15 0 -8 -7 -15 -15 -15 -8 0 -15 -7 -15 -15 0 -8 -7 -15 -15 -15
-8 0 -15 -7 -15 -15 0 -8 -7 -15 -15 -15 -8 0 -15 -7 -15 -15 0 -8 -7 -15 -15
-15 -8 0 -15 -7 -15 -15 0 -8 -7 -15 -15 -15 -8 0 -15 -7 -15 -15 0 -8 -7 -15
-15 -15 -8 0 -15 -7 -15 -15 0 -8 -7 -15 -15 -15 -8 0 -15 -7 -15 -15 0 -8 -7
-15 -15 -15 -8 0 -15 -7 -15 -15 0 -8 -7 -15 -15 -15 -8 0 -15 -7 -15 -15 0
-8 -7 -15 -15 -15 -8 0 -15 -7 -15 -15 0 -8 -7 -15 -15 -15 -8 0 -15 -7 -15
-15 0 -8 -7 -15 -15 -15 -8 0 -15 -7 -15 -15 0 -8 -7 -15 -15 -15 -8 0 -15 -7
-15 -15 0 -8 -7 -15 -15 -15 -8 0 -15 -7 -15 -15 0 -8 -7 -15 -15 -15 -8 0
-15 -7 -15 -15 0 -8 -7 -15 -15 -15 -8 0 -15 -7 -15 -15 0 -8 -7 -15 -15 -15
-8 0 -15 -7 -15 -15 0 -8 -7 -15 -15 -15 -8 0 -15 -7 -15 -15 0 -8 -7 -15 -15
-15 -8 0 -15 -7 -15 -15 0 -8 -7 -15 -15 -15 -8 0 -15 -7 -15 -15 0 -8 -7 -15
-15 -15 -8 0 -15 -7 -15 -15 0 -8 -7 -15 -15 -15 -10 0 -15 -10 -15 -30 0 -20
-5 -30 -15 -30 -11 0 -15 -12 -15 -44 0 -26 -6 -48 -15 -56 -19 -16 -19 -60 0
-86 8 -10 15 -38 15 -61 0 -31 4 -43 15 -43 10 0 15 -10 15 -30 0 -20 5 -30
15 -30 8 0 15 -7 15 -15 0 -8 7 -15 15 -15 8 0 15 -7 15 -15 0 -8 7 -15 15
-15 8 0 15 -7 15 -15 0 -8 7 -15 15 -15 8 0 15 -7 15 -15 0 -8 7 -15 15 -15 8
0 15 -7 15 -15 0 -8 7 -15 15 -15 8 0 15 -7 15 -15 0 -10 10 -15 30 -15 20 0
30 -5 30 -15 0 -8 7 -15 15 -15 8 0 15 -7 15 -15 0 -10 10 -15 30 -15 20 0 30
-5 30 -15 0 -10 10 -15 29 -15 16 0 31 -6 35 -15 4 -11 21 -15 61 -15 42 0 55
-3 55 -15 0 -13 32 -15 224 -15 186 0 226 2 236 15 7 9 29 15 52 15 25 0 41 5
44 15 4 8 18 15 34 15 16 0 30 7 34 15 3 8 16 15 30 15 13 0 26 7 30 15 3 8
12 15 20 15 7 0 16 7 20 15 3 8 15 15 26 15 11 0 23 7 26 15 4 8 12 15 20 15
8 0 14 7 14 15 0 8 7 15 15 15 8 0 15 7 15 15 0 8 8 15 17 15 9 0 36 20 60 45
23 25 47 45 53 45 5 0 10 7 10 15 0 8 5 15 10 15 6 0 38 27 71 60 33 33 64 60
69 60 6 0 10 7 10 15 0 8 7 15 15 15 8 0 15 7 15 15 0 8 7 15 15 15 8 0 15 5
15 10 0 13 37 50 50 50 6 0 10 7 10 15 0 8 7 15 15 15 8 0 15 7 15 15 0 8 7
15 15 15 8 0 15 7 15 15 0 8 7 15 15 15 8 0 15 7 15 15 0 8 7 15 15 15 8 0 15
7 15 15 0 8 7 15 15 15 8 0 15 7 15 15 0 8 4 15 9 15 13 0 141 -128 141 -141
0 -5 7 -9 15 -9 8 0 15 -7 15 -15 0 -8 7 -15 15 -15 8 0 15 -7 15 -15 0 -8 7
-15 15 -15 8 0 15 -7 15 -15 0 -8 7 -15 15 -15 8 0 15 -7 15 -15 0 -8 7 -15
15 -15 8 0 15 -7 15 -15 0 -8 7 -15 15 -15 8 0 15 -7 15 -15 0 -8 7 -15 15
-15 8 0 15 -7 15 -15 0 -8 7 -15 15 -15 8 0 15 -7 15 -15 0 -8 7 -15 15 -15 8
0 15 -7 15 -15 0 -8 7 -15 15 -15 8 0 15 -7 15 -15 0 -8 7 -15 15 -15 8 0 15
-7 15 -15 0 -8 7 -15 15 -15 8 0 15 -7 15 -15 0 -8 7 -15 15 -15 8 0 15 -7 15
-15 0 -8 7 -15 15 -15 8 0 15 -7 15 -15 0 -8 7 -15 15 -15 8 0 15 -7 15 -15 0
-8 7 -15 15 -15 8 0 15 -7 15 -15 0 -8 7 -15 15 -15 8 0 15 -7 15 -15 0 -8 7
-15 15 -15 8 0 15 -7 15 -15 0 -8 7 -15 15 -15 8 0 15 -7 15 -15 0 -8 7 -15
15 -15 8 0 15 -7 15 -15 0 -8 7 -15 15 -15 8 0 15 -7 15 -15 0 -8 7 -15 15
-15 8 0 15 -7 15 -15 0 -8 7 -15 15 -15 8 0 15 -7 15 -15 0 -8 7 -15 15 -15 8
0 15 -7 15 -15 0 -8 7 -15 15 -15 8 0 15 -7 15 -15 0 -8 7 -15 15 -15 8 0 15
-7 15 -15 0 -8 7 -15 15 -15 8 0 15 -7 15 -15 0 -8 7 -15 15 -15 8 0 15 -7 15
-15 0 -8 7 -15 15 -15 8 0 15 -7 15 -15 0 -8 7 -15 15 -15 8 0 15 -7 15 -15 0
-8 7 -15 15 -15 8 0 15 -7 15 -15 0 -8 7 -15 15 -15 8 0 15 -7 15 -15 0 -8 7
-15 15 -15 8 0 15 -7 15 -15 0 -8 7 -15 15 -15 8 0 15 -7 15 -15 0 -8 7 -15
15 -15 8 0 15 -7 15 -15 0 -8 7 -15 15 -15 8 0 15 -7 15 -15 0 -8 7 -15 15
-15 8 0 15 -7 15 -15 0 -8 7 -15 15 -15 8 0 15 -7 15 -15 0 -8 7 -15 15 -15 8
0 15 -7 15 -15 0 -8 7 -15 15 -15 8 0 15 -7 15 -15 0 -8 7 -15 15 -15 8 0 15
-7 15 -15 0 -8 7 -15 15 -15 8 0 15 -7 15 -15 0 -8 7 -15 15 -15 8 0 15 -7 15
-15 0 -8 7 -15 15 -15 8 0 15 -7 15 -15 0 -8 7 -15 15 -15 8 0 15 -7 15 -15 0
-8 7 -15 15 -15 12 0 15 -16 15 -80 0 -64 -3 -80 -15 -80 -8 0 -15 -7 -15 -15
0 -8 -7 -15 -15 -15 -8 0 -15 -7 -15 -15 0 -10 -10 -15 -30 -15 -20 0 -30 -5
-30 -15 0 -12 -15 -15 -75 -15 -60 0 -75 3 -75 15 0 8 -7 15 -15 15 -8 0 -15
7 -15 15 0 8 -7 15 -15 15 -8 0 -15 7 -15 15 0 8 -7 15 -15 15 -8 0 -15 7 -15
15 0 8 -7 15 -15 15 -8 0 -15 7 -15 15 0 8 -7 15 -15 15 -8 0 -15 7 -15 15 0
8 -7 15 -15 15 -8 0 -15 7 -15 15 0 8 -7 15 -15 15 -8 0 -15 7 -15 15 0 8 -7
15 -15 15 -8 0 -15 7 -15 15 0 8 -7 15 -15 15 -8 0 -15 7 -15 15 0 8 -7 15
-15 15 -8 0 -15 7 -15 15 0 8 -7 15 -15 15 -8 0 -15 7 -15 15 0 8 -7 15 -15
15 -8 0 -15 7 -15 15 0 8 -7 15 -15 15 -8 0 -15 7 -15 15 0 8 -7 15 -15 15 -8
0 -15 7 -15 15 0 8 -7 15 -15 15 -8 0 -15 7 -15 15 0 8 -7 15 -15 15 -8 0 -15
7 -15 15 0 8 -7 15 -15 15 -8 0 -15 7 -15 15 0 8 -7 15 -15 15 -8 0 -15 7 -15
15 0 8 -7 15 -15 15 -8 0 -15 7 -15 15 0 8 -7 15 -15 15 -8 0 -15 7 -15 15 0
8 -7 15 -15 15 -8 0 -15 7 -15 15 0 8 -7 15 -15 15 -8 0 -15 7 -15 15 0 8 -7
15 -15 15 -8 0 -15 7 -15 15 0 8 -7 15 -15 15 -8 0 -15 7 -15 15 0 8 -7 15
-15 15 -8 0 -15 7 -15 15 0 8 -7 15 -15 15 -8 0 -15 7 -15 15 0 8 -7 15 -15
15 -8 0 -15 7 -15 15 0 8 -7 15 -15 15 -8 0 -15 7 -15 15 0 8 -7 15 -15 15 -8
0 -15 7 -15 15 0 8 -7 15 -15 15 -8 0 -15 7 -15 15 0 8 -7 15 -15 15 -8 0 -15
7 -15 15 0 8 -7 15 -15 15 -8 0 -15 7 -15 15 0 8 -7 15 -15 15 -8 0 -15 7 -15
15 0 8 -7 15 -15 15 -8 0 -15 7 -15 15 0 8 -7 15 -15 15 -8 0 -15 7 -15 15 0
8 -7 15 -15 15 -8 0 -15 7 -15 15 0 8 -7 15 -15 15 -8 0 -15 7 -15 15 0 8 -9
15 -19 15 -10 0 -21 7 -25 15 -4 12 -24 15 -86 15 -64 0 -80 -3 -80 -15 0 -8
-7 -15 -15 -15 -8 0 -15 -7 -15 -15 0 -8 -7 -15 -15 -15 -8 0 -15 -7 -15 -15
0 -8 -7 -15 -15 -15 -12 0 -15 -18 -15 -100 0 -80 3 -100 14 -100 8 0 16 -7
18 -15 3 -15 390 -416 776 -803 116 -117 212 -218 212 -223 0 -5 7 -9 15 -9 8
0 15 -7 15 -15 0 -8 7 -15 15 -15 8 0 15 -7 15 -15 0 -8 7 -15 15 -15 8 0 15
-7 15 -15 0 -8 7 -15 15 -15 8 0 15 -7 15 -15 0 -8 7 -15 15 -15 21 0 21 -102
0 -120 -8 -7 -15 -19 -15 -26 0 -8 -7 -14 -15 -14 -8 0 -15 -7 -15 -15 0 -10
-10 -15 -30 -15 -20 0 -30 -5 -30 -15 0 -11 -12 -15 -45 -15 -29 0 -45 -4 -46
-12 0 -10 -2 -10 -6 0 -2 6 -10 12 -17 12 -14 0 -136 127 -136 141 0 5 -7 9
-15 9 -8 0 -15 7 -15 15 0 8 -7 15 -15 15 -8 0 -15 7 -15 15 0 8 -7 15 -15 15
-8 0 -15 4 -15 9 0 6 -79 89 -175 186 -96 98 -175 181 -175 186 0 5 -7 9 -15
9 -8 0 -15 7 -15 15 0 8 -7 15 -15 15 -8 0 -15 7 -15 15 0 8 -9 15 -20 15 -11
0 -20 7 -20 15 0 8 -4 15 -10 15 -5 0 -10 7 -10 15 0 8 -7 15 -15 15 -8 0 -15
7 -15 15 0 8 -7 15 -15 15 -8 0 -15 7 -15 15 0 8 -7 15 -15 15 -8 0 -15 7 -15
15 0 8 -7 15 -15 15 -8 0 -15 7 -15 15 0 8 -7 15 -15 15 -8 0 -15 7 -15 15 0
8 -7 15 -15 15 -8 0 -15 7 -15 15 0 8 -7 15 -15 15 -8 0 -15 7 -15 15 0 8 -7
15 -15 15 -8 0 -15 7 -15 15 0 8 -7 15 -15 15 -8 0 -15 7 -15 15 0 8 -7 15
-15 15 -8 0 -15 7 -15 15 0 8 -7 15 -15 15 -8 0 -15 7 -15 15 0 8 -7 15 -15
15 -8 0 -15 7 -15 15 0 8 -7 15 -15 15 -8 0 -15 4 -15 9 0 15 -63 81 -77 81
-7 0 -13 7 -13 15 0 12 -19 15 -111 15 -102 0 -113 -2 -135 -22 -13 -13 -24
-33 -24 -45 0 -14 -6 -23 -15 -23 -12 0 -15 -15 -15 -74 0 -53 4 -77 15 -86 8
-7 15 -19 15 -26 0 -8 7 -14 15 -14 8 0 15 -7 15 -15 0 -8 7 -15 15 -15 8 0
15 -7 15 -15 0 -8 7 -15 15 -15 8 0 15 -7 15 -15 0 -8 7 -15 15 -15 8 0 15 -7
15 -15 0 -8 7 -15 15 -15 8 0 15 -7 15 -15 0 -8 7 -15 15 -15 8 0 15 -7 15
-15 0 -8 7 -15 15 -15 8 0 15 -7 15 -15 0 -8 7 -15 15 -15 8 0 15 -7 15 -15 0
-8 7 -15 15 -15 8 0 15 -7 15 -15 0 -8 7 -15 15 -15 8 0 15 -5 15 -11 0 -13
57 -82 134 -163 25 -26 46 -52 46 -57 0 -5 7 -9 15 -9 8 0 15 -7 15 -15 0 -8
7 -15 15 -15 8 0 15 -7 15 -15 0 -8 7 -15 15 -15 8 0 15 -7 15 -15 0 -8 7 -15
15 -15 8 0 15 -7 15 -15 0 -8 7 -15 15 -15 8 0 15 -7 15 -15 0 -8 7 -15 15
-15 8 0 15 -7 15 -15 0 -8 7 -15 15 -15 8 0 15 -7 15 -15 0 -8 7 -15 15 -15 8
0 15 -7 15 -15 0 -8 7 -15 15 -15 8 0 15 -7 15 -15 0 -8 7 -15 15 -15 8 0 15
-7 15 -15 0 -8 7 -15 15 -15 8 0 15 -7 15 -15 0 -8 7 -15 15 -15 8 0 15 -7 15
-15 0 -8 7 -15 15 -15 8 0 15 -7 15 -15 0 -8 7 -15 15 -15 8 0 15 -7 15 -15 0
-8 7 -15 15 -15 8 0 15 -7 15 -15 0 -8 7 -15 15 -15 8 0 15 -7 15 -15 0 -8 7
-15 15 -15 8 0 15 -7 15 -15 0 -8 7 -15 15 -15 8 0 15 -7 15 -15 0 -8 7 -15
15 -15 8 0 15 -7 15 -15 0 -8 7 -15 15 -15 8 0 15 -7 15 -15 0 -8 7 -15 15
-15 8 0 15 -7 15 -15 0 -8 7 -15 15 -15 8 0 15 -7 15 -15 0 -8 7 -15 15 -15
12 0 15 -14 15 -65 0 -51 -3 -65 -15 -65 -8 0 -15 -7 -15 -15 0 -8 -7 -15 -15
-15 -8 0 -15 -7 -15 -15 0 -8 -7 -15 -15 -15 -8 0 -15 -7 -15 -15 0 -12 -15
-15 -75 -15 l-75 0 0 45 c0 31 -4 45 -14 45 -8 0 -15 16 -19 41 -3 23 -10 45
-15 48 -6 3 -14 19 -17 34 -4 15 -11 27 -16 27 -5 0 -9 7 -9 15 0 8 -7 15 -15
15 -8 0 -15 7 -15 15 0 8 -9 15 -20 15 -11 0 -20 7 -20 15 0 8 -4 15 -10 15
-5 0 -10 7 -10 15 0 8 -7 15 -15 15 -8 0 -15 7 -15 15 0 8 -6 15 -14 15 -8 0
-16 7 -20 15 -3 8 -17 15 -31 15 -16 0 -25 6 -25 15 0 10 -10 15 -29 15 -16 0
-31 6 -35 15 -4 11 -21 15 -61 15 l-55 0 0 41 c0 22 -6 53 -14 67 -8 15 -18
44 -21 65 -3 20 -10 37 -15 37 -4 0 -11 14 -15 30 -4 16 -11 30 -16 30 -5 0
-9 7 -9 15 0 8 -7 15 -15 15 -8 0 -15 5 -15 10 0 6 -8 19 -17 29 -10 11 -29
33 -43 50 -13 17 -32 31 -42 31 -10 0 -18 7 -18 15 0 8 -6 15 -14 15 -8 0 -16
7 -20 15 -3 8 -17 15 -31 15 -16 0 -25 6 -25 15 0 10 -10 15 -29 15 -16 0 -31
6 -35 15 -4 11 -20 15 -56 15 -60 0 -84 19 -93 76 -4 21 -11 40 -17 42 -5 2
-10 17 -10 33 0 19 -5 29 -15 29 -9 0 -15 9 -15 25 0 14 -7 28 -15 31 -8 4
-15 12 -15 20 0 8 -7 14 -15 14 -8 0 -15 7 -15 15 0 8 -9 24 -20 35 -11 11
-20 25 -20 30 0 6 -11 10 -25 10 -16 0 -25 6 -25 15 0 8 -6 15 -14 15 -8 0
-16 7 -20 15 -3 8 -17 15 -31 15 -14 0 -28 7 -31 15 -4 10 -20 15 -44 15 -24
0 -40 5 -44 15 -4 11 -22 15 -76 15 l-70 0 0 43 c0 24 -7 52 -15 63 -8 10 -15
36 -15 57 0 24 -5 40 -15 43 -8 4 -15 17 -15 30 0 14 -6 27 -14 30 -8 3 -17
16 -20 28 -8 34 -130 156 -155 156 -12 0 -21 6 -21 15 0 8 -9 15 -20 15 -11 0
-20 7 -20 15 0 10 -10 15 -29 15 -16 0 -34 7 -41 15 -19 22 -370 22 -370 0 0
-10 -10 -15 -30 -15 -20 0 -30 -5 -30 -15 0 -10 -10 -15 -30 -15 -20 0 -30 -5
-30 -15 0 -8 -7 -15 -15 -15 -8 0 -15 -7 -15 -15 0 -8 -8 -15 -17 -15 -10 0
-40 -21 -66 -45 -26 -25 -52 -45 -57 -45 -6 0 -10 -7 -10 -15 0 -8 -7 -15 -15
-15 -8 0 -15 -7 -15 -15 0 -8 -7 -15 -15 -15 -8 0 -15 -7 -15 -15 0 -8 -7 -15
-15 -15 -8 0 -15 -7 -15 -15 0 -8 -7 -15 -15 -15 -8 0 -15 -7 -15 -15 0 -8 -7
-15 -15 -15 -8 0 -15 -7 -15 -15 0 -8 -7 -15 -15 -15 -8 0 -15 -7 -15 -15 0
-8 -7 -15 -15 -15 -8 0 -15 -7 -15 -15 0 -8 -7 -15 -15 -15 -8 0 -15 -7 -15
-15 0 -8 -7 -15 -15 -15 -8 0 -15 -7 -15 -15 0 -8 -7 -15 -15 -15 -8 0 -15 -7
-15 -15 0 -8 -7 -15 -15 -15 -8 0 -15 -7 -15 -15 0 -8 -7 -15 -15 -15 -8 0
-15 -7 -15 -15 0 -8 -7 -15 -15 -15 -8 0 -15 -7 -15 -15 0 -8 -7 -15 -15 -15
-8 0 -15 7 -15 15 0 8 -7 15 -15 15 -8 0 -15 7 -15 15 0 8 -7 15 -15 15 -8 0
-15 7 -15 15 0 8 -7 15 -15 15 -8 0 -15 7 -15 15 0 8 -7 15 -15 15 -8 0 -15 7
-15 15 0 8 -7 15 -15 15 -8 0 -15 7 -15 15 0 8 -7 15 -15 15 -8 0 -15 7 -15
15 0 8 -7 15 -15 15 -8 0 -15 7 -15 15 0 8 -7 15 -15 15 -8 0 -15 7 -15 15 0
8 -7 15 -15 15 -8 0 -15 7 -15 15 0 8 -7 15 -15 15 -8 0 -15 7 -15 15 0 8 -7
15 -15 15 -8 0 -15 7 -15 15 0 8 -7 15 -15 15 -8 0 -15 7 -15 15 0 8 -6 15
-14 15 -8 0 -16 10 -20 23 -3 13 -17 36 -31 51 -14 15 -25 31 -25 35 0 5 -7
14 -15 21 -8 7 -15 21 -15 31 0 11 -7 19 -15 19 -10 0 -15 10 -15 30 0 20 -5
30 -15 30 -11 0 -15 11 -15 40 0 27 -5 43 -15 46 -11 5 -15 21 -15 60 0 39 -4
56 -15 60 -12 5 -15 31 -15 144 0 94 4 140 11 142 6 2 14 28 17 58 2 30 9 58
14 61 5 3 11 23 15 45 3 21 12 43 20 47 7 4 13 19 13 31 0 13 7 26 15 30 8 3
15 17 15 31 0 16 6 25 15 25 8 0 15 5 15 11 0 6 7 17 15 25 8 9 15 24 15 35 0
10 7 19 15 19 8 0 15 7 15 15 0 8 7 15 15 15 8 0 15 7 15 15 0 8 7 15 15 15 8
0 15 7 15 15 0 8 7 15 15 15 8 0 15 7 15 15 0 8 7 15 15 15 8 0 15 7 15 15 0
8 7 15 15 15 8 0 15 7 15 15 0 8 7 15 15 15 8 0 15 7 15 15 0 8 7 15 15 15 8
0 15 7 15 15 0 8 7 15 15 15 8 0 15 7 15 15 0 8 7 15 15 15 8 0 15 7 15 15 0
8 7 15 15 15 8 0 15 7 15 15 0 8 7 15 15 15 8 0 15 7 15 15 0 8 7 15 15 15 8
0 15 7 15 15 0 8 7 15 15 15 8 0 15 7 15 15 0 8 7 15 15 15 8 0 15 7 15 15 0
8 7 15 15 15 8 0 15 7 15 15 0 8 7 15 15 15 8 0 15 7 15 15 0 8 7 15 15 15 8
0 15 7 15 15 0 8 7 15 15 15 8 0 15 7 15 15 0 8 7 15 15 15 8 0 15 7 15 15 0
8 7 15 15 15 8 0 15 7 15 15 0 8 7 15 15 15 8 0 15 7 15 15 0 8 7 15 15 15 8
0 15 7 15 15 0 8 7 15 15 15 8 0 15 7 15 15 0 8 5 15 10 15 6 0 10 7 10 15 0
8 9 15 20 15 11 0 20 7 20 15 0 8 7 15 15 15 8 0 15 7 15 15 0 8 7 15 15 15 8
0 15 7 15 15 0 8 7 15 15 15 8 0 15 6 15 14 0 7 8 17 18 20 34 13 72 37 72 47
0 5 6 9 14 9 8 0 16 7 20 15 3 8 17 15 31 15 16 0 25 6 25 15 0 9 9 15 25 15
14 0 28 7 31 15 4 8 18 15 34 15 16 0 30 7 34 15 4 11 22 15 76 15 56 0 70 3
70 15 0 13 23 15 150 15 127 0 150 -2 150 -15z m1964 0 c4 -12 24 -15 86 -15
64 0 80 -3 80 -15 0 -11 12 -15 45 -15 33 0 45 -4 45 -15 0 -10 10 -15 30 -15
20 0 30 -5 30 -15 0 -8 8 -15 19 -15 10 0 24 -7 31 -15 7 -8 19 -15 26 -15 8
0 14 -7 14 -15 0 -8 9 -15 19 -15 10 0 21 -7 25 -15 3 -8 15 -15 26 -15 11 0
20 -7 20 -15 0 -8 7 -15 15 -15 8 0 15 -7 15 -15 0 -8 7 -15 15 -15 8 0 15 -7
15 -15 0 -8 7 -15 15 -15 8 0 15 -7 15 -15 0 -8 7 -15 15 -15 8 0 15 -7 15
-15 0 -8 7 -15 15 -15 8 0 15 -7 15 -15 0 -8 7 -15 15 -15 8 0 15 -7 15 -15 0
-8 7 -15 15 -15 8 0 15 -7 15 -15 0 -8 7 -15 15 -15 8 0 15 -7 15 -15 0 -8 7
-15 15 -15 8 0 15 -7 15 -15 0 -8 7 -15 15 -15 8 0 15 -7 15 -15 0 -8 7 -15
15 -15 8 0 15 -7 15 -15 0 -8 7 -15 15 -15 8 0 15 -7 15 -15 0 -8 7 -15 15
-15 8 0 15 -7 15 -15 0 -8 7 -15 15 -15 8 0 15 -7 15 -15 0 -8 7 -15 15 -15 8
0 15 -7 15 -15 0 -8 7 -15 15 -15 8 0 15 -7 15 -15 0 -8 7 -15 15 -15 8 0 15
-7 15 -15 0 -8 7 -15 15 -15 8 0 15 -7 15 -15 0 -8 7 -15 15 -15 8 0 15 -7 15
-15 0 -8 7 -15 15 -15 8 0 15 -7 15 -15 0 -8 7 -15 15 -15 8 0 15 -7 15 -15 0
-8 7 -15 15 -15 8 0 15 -7 15 -15 0 -8 7 -15 15 -15 8 0 15 -7 15 -15 0 -8 7
-15 15 -15 8 0 15 -7 15 -15 0 -8 7 -15 15 -15 8 0 15 -7 15 -15 0 -8 7 -15
15 -15 8 0 15 -7 15 -15 0 -8 7 -15 15 -15 8 0 15 -7 15 -15 0 -8 7 -15 15
-15 8 0 15 -6 15 -14 0 -7 7 -19 15 -26 8 -7 15 -21 15 -31 0 -11 7 -19 15
-19 8 0 15 -7 15 -15 0 -8 7 -15 15 -15 10 0 15 -10 15 -30 0 -20 5 -30 15
-30 10 0 15 -10 15 -30 0 -20 5 -30 15 -30 11 0 15 -12 15 -45 0 -33 4 -45 15
-45 12 0 15 -13 15 -60 0 -47 3 -60 15 -60 13 0 15 -21 15 -126 0 -98 -3 -129
-15 -140 -10 -10 -15 -35 -15 -75 0 -46 -3 -59 -15 -59 -10 0 -15 -10 -15 -29
0 -16 -6 -31 -15 -35 -8 -3 -15 -16 -15 -30 0 -13 -7 -26 -15 -30 -8 -3 -15
-17 -15 -31 0 -16 -6 -25 -15 -25 -10 0 -15 -10 -15 -30 0 -20 -5 -30 -15 -30
-8 0 -15 -7 -15 -15 0 -8 -7 -15 -15 -15 -8 0 -15 -7 -15 -15 0 -8 -7 -15 -15
-15 -8 0 -15 -8 -15 -19 0 -10 -7 -24 -15 -31 -8 -7 -15 -19 -15 -26 0 -8 -7
-14 -15 -14 -8 0 -15 -7 -15 -15 0 -8 -7 -15 -15 -15 -8 0 -15 -7 -15 -15 0
-8 -7 -15 -15 -15 -8 0 -15 7 -15 15 0 8 -7 15 -15 15 -8 0 -15 7 -15 15 0 8
-7 15 -15 15 -8 0 -15 7 -15 15 0 8 -7 15 -15 15 -8 0 -15 7 -15 15 0 8 -7 15
-15 15 -8 0 -15 7 -15 15 0 8 -7 15 -15 15 -8 0 -15 7 -15 15 0 8 -7 15 -15
15 -8 0 -15 7 -15 15 0 8 -6 15 -13 15 -11 0 -47 34 -47 44 0 5 -128 142 -202
219 -27 26 -48 52 -48 57 0 6 -7 10 -15 10 -8 0 -15 7 -15 15 0 8 -7 15 -15
15 -8 0 -15 7 -15 15 0 8 -7 15 -15 15 -8 0 -15 7 -15 15 0 8 -7 15 -15 15 -8
0 -15 4 -15 9 0 6 -106 116 -235 247 -129 130 -235 240 -235 245 0 5 -7 9 -15
9 -8 0 -15 7 -15 15 0 8 -7 15 -15 15 -8 0 -15 7 -15 15 0 8 -7 15 -15 15 -8
0 -15 7 -15 15 0 8 -7 15 -15 15 -8 0 -15 7 -15 15 0 8 -7 15 -15 15 -8 0 -15
7 -15 15 0 8 -7 15 -15 15 -8 0 -15 7 -15 15 0 8 -7 15 -15 15 -8 0 -15 7 -15
15 0 8 -7 15 -15 15 -8 0 -15 7 -15 15 0 8 -7 15 -15 15 -8 0 -15 7 -15 15 0
8 -7 15 -15 15 -8 0 -15 7 -15 15 0 8 -7 15 -15 15 -8 0 -15 7 -15 15 0 8 -7
15 -15 15 -8 0 -15 7 -15 15 0 8 -9 15 -19 15 -10 0 -21 7 -25 15 -4 11 -22
15 -71 15 -51 0 -65 -3 -65 -15 0 -10 -10 -15 -30 -15 -19 0 -30 -5 -30 -14 0
-8 -11 -17 -25 -20 -14 -4 -25 -11 -25 -16 0 -6 -9 -10 -20 -10 -11 0 -20 -4
-20 -9 0 -13 -156 -171 -169 -171 -6 0 -11 -7 -11 -15 0 -8 -7 -15 -15 -15 -8
0 -15 -7 -15 -15 0 -8 -7 -15 -15 -15 -8 0 -15 -7 -15 -15 0 -8 -7 -15 -15
-15 -8 0 -15 -7 -15 -15 0 -8 -7 -15 -15 -15 -8 0 -15 -7 -15 -15 0 -8 -7 -15
-15 -15 -8 0 -15 -7 -15 -15 0 -8 -7 -15 -15 -15 -8 0 -15 -7 -15 -15 0 -8 -7
-15 -15 -15 -8 0 -15 -7 -15 -15 0 -8 -7 -15 -15 -15 -8 0 -15 -7 -15 -15 0
-8 -7 -15 -15 -15 -8 0 -15 -7 -15 -15 0 -8 -7 -15 -15 -15 -8 0 -15 -7 -15
-15 0 -8 -7 -15 -15 -15 -8 0 -15 -7 -15 -15 0 -8 -7 -15 -15 -15 -8 0 -15 -7
-15 -15 0 -8 -7 -15 -15 -15 -8 0 -15 -7 -15 -15 0 -8 -7 -15 -15 -15 -8 0
-15 -7 -15 -15 0 -8 -7 -15 -15 -15 -8 0 -15 -7 -15 -15 0 -8 -6 -15 -14 -15
-7 0 -19 -7 -26 -15 -7 -8 -21 -15 -31 -15 -11 0 -19 -7 -19 -15 0 -9 -9 -15
-25 -15 -14 0 -28 -7 -31 -15 -4 -9 -19 -15 -35 -15 -19 0 -29 -5 -29 -15 0
-11 -12 -15 -45 -15 -33 0 -45 -4 -45 -15 0 -12 -15 -15 -75 -15 -58 0 -77 4
-81 15 -4 10 -20 15 -50 15 -32 0 -44 4 -44 15 0 10 -10 15 -29 15 -16 0 -34
7 -41 15 -7 8 -19 15 -27 15 -7 0 -16 7 -19 15 -4 8 -17 15 -30 15 -15 0 -24
6 -24 15 0 8 -7 15 -15 15 -8 0 -15 7 -15 15 0 8 -6 15 -12 16 -10 0 -10 2 0
6 6 2 12 11 12 19 0 8 5 14 11 14 16 0 169 152 169 167 0 7 7 13 15 13 8 0 15
7 15 15 0 8 7 15 15 15 8 0 15 7 15 15 0 8 7 15 15 15 8 0 15 7 15 15 0 8 7
15 15 15 8 0 15 7 15 15 0 8 6 15 13 15 18 0 197 180 197 197 0 7 7 13 15 13
8 0 15 7 15 15 0 8 7 15 15 15 8 0 15 7 15 15 0 8 7 15 15 15 8 0 15 7 15 15
0 8 7 15 15 15 8 0 15 7 15 15 0 8 7 15 15 15 8 0 15 7 15 15 0 8 7 15 15 15
8 0 15 7 15 15 0 8 7 15 15 15 8 0 15 7 15 15 0 8 7 15 15 15 8 0 15 7 15 15
0 8 7 15 15 15 8 0 15 7 15 15 0 8 7 15 15 15 8 0 15 7 15 15 0 8 7 15 15 15
8 0 15 7 15 15 0 8 6 15 13 15 22 0 257 238 257 260 0 6 7 10 15 10 8 0 15 7
15 15 0 8 7 15 15 15 8 0 15 7 15 15 0 8 7 15 15 15 8 0 15 7 15 15 0 8 7 15
15 15 8 0 15 7 15 15 0 8 9 15 20 15 11 0 23 7 26 15 4 8 12 15 20 15 8 0 14
7 14 15 0 8 7 15 15 15 9 0 18 7 21 15 4 8 12 15 20 15 8 0 14 7 14 15 0 9 9
15 25 15 14 0 28 7 31 15 4 8 17 15 30 15 15 0 24 6 24 15 0 9 9 15 25 15 14
0 28 7 31 15 4 9 19 15 40 15 24 0 34 5 34 15 0 12 14 15 65 15 49 0 67 4 71
15 5 12 26 15 104 15 78 0 99 -3 104 -15z m-2220 -2340 c3 -8 15 -15 26 -15
11 0 20 -7 20 -15 0 -8 7 -15 15 -15 8 0 15 -7 15 -15 0 -8 7 -15 15 -15 8 0
15 -7 15 -15 0 -8 7 -15 15 -15 12 0 15 -17 15 -95 0 -78 -3 -95 -15 -95 -8 0
-15 -7 -15 -15 0 -8 -7 -15 -15 -15 -8 0 -15 -7 -15 -15 0 -8 -7 -15 -15 -15
-8 0 -15 -7 -15 -15 0 -8 -7 -15 -15 -15 -8 0 -15 -7 -15 -15 0 -8 -8 -15 -17
-15 -10 0 -47 -27 -82 -60 -35 -33 -67 -60 -72 -60 -5 0 -9 -7 -9 -15 0 -8 -7
-15 -15 -15 -8 0 -15 -7 -15 -15 0 -8 -7 -15 -15 -15 -8 0 -15 -7 -15 -15 0
-8 -7 -15 -15 -15 -8 0 -15 -7 -15 -15 0 -8 -7 -15 -15 -15 -8 0 -15 -7 -15
-15 0 -8 -7 -15 -15 -15 -8 0 -15 -7 -15 -15 0 -8 -7 -15 -15 -15 -8 0 -15 -7
-15 -15 0 -8 -7 -15 -15 -15 -8 0 -15 -7 -15 -15 0 -8 -7 -15 -15 -15 -8 0
-15 -7 -15 -15 0 -8 -7 -15 -15 -15 -8 0 -15 -7 -15 -15 0 -8 -7 -15 -15 -15
-8 0 -15 -7 -15 -15 0 -8 -6 -15 -14 -15 -8 0 -16 7 -20 15 -3 10 -19 15 -46
15 -29 0 -40 4 -40 15 0 8 -9 15 -20 15 -11 0 -20 7 -20 15 0 8 -7 15 -15 15
-8 0 -15 5 -15 11 0 7 -11 21 -23 33 -13 12 -27 34 -31 49 -3 15 -11 27 -16
27 -6 0 -10 16 -10 35 0 24 5 35 14 35 8 0 49 34 91 75 43 41 81 75 86 75 5 0
9 7 9 15 0 8 7 15 15 15 8 0 15 7 15 15 0 8 7 15 15 15 8 0 15 7 15 15 0 8 4
15 9 15 5 0 71 61 146 135 75 74 141 135 146 135 5 0 9 7 9 15 0 8 7 15 15 15
8 0 15 7 15 15 0 8 6 15 14 15 7 0 19 7 26 15 7 8 29 15 50 15 24 0 40 -5 44
-15z m556 -540 c0 -10 10 -15 30 -15 20 0 30 -5 30 -15 0 -8 7 -15 15 -15 8 0
15 -7 15 -15 0 -8 7 -15 15 -15 10 0 15 -10 15 -30 0 -20 5 -30 15 -30 10 0
15 -11 15 -35 0 -24 -5 -35 -15 -35 -8 0 -15 -7 -15 -15 0 -8 -7 -15 -15 -15
-8 0 -15 -7 -15 -15 0 -8 -7 -15 -15 -15 -8 0 -15 -7 -15 -15 0 -8 -7 -15 -15
-15 -8 0 -15 -7 -15 -15 0 -8 -7 -15 -15 -15 -8 0 -15 -7 -15 -15 0 -8 -7 -15
-15 -15 -8 0 -15 -7 -15 -15 0 -8 -7 -15 -15 -15 -8 0 -15 -7 -15 -15 0 -8 -7
-15 -15 -15 -8 0 -15 -7 -15 -15 0 -8 -7 -15 -15 -15 -8 0 -15 -7 -15 -15 0
-8 -7 -15 -15 -15 -8 0 -15 -7 -15 -15 0 -8 -7 -15 -15 -15 -8 0 -15 -7 -15
-15 0 -8 -7 -15 -15 -15 -8 0 -15 -7 -15 -15 0 -8 -7 -15 -15 -15 -8 0 -15 -7
-15 -15 0 -8 -7 -15 -15 -15 -8 0 -15 -7 -15 -15 0 -8 -7 -15 -15 -15 -8 0
-15 -7 -15 -15 0 -8 -7 -15 -15 -15 -8 0 -15 -7 -15 -15 0 -8 -7 -15 -15 -15
-8 0 -15 -7 -15 -15 0 -8 -7 -15 -15 -15 -8 0 -15 -7 -15 -15 0 -8 -7 -15 -15
-15 -8 0 -15 -7 -15 -15 0 -8 -7 -15 -15 -15 -8 0 -15 -7 -15 -15 0 -8 -7 -15
-15 -15 -8 0 -15 -7 -15 -15 0 -8 -7 -15 -15 -15 -8 0 -16 -8 -16 -17 -1 -17
-2 -17 -6 0 -3 12 -15 17 -39 17 -28 0 -43 9 -82 49 -54 55 -82 102 -82 137 0
15 -6 24 -15 24 -8 0 -15 9 -15 20 0 11 5 20 10 20 6 0 10 7 10 15 0 8 4 15
10 15 5 0 57 47 116 105 58 58 110 105 115 105 5 0 9 7 9 15 0 8 7 15 15 15 8
0 15 7 15 15 0 8 7 15 15 15 8 0 15 7 15 15 0 8 7 15 15 15 8 0 15 7 15 15 0
8 7 15 15 15 8 0 15 7 15 15 0 8 7 15 15 15 8 0 15 7 15 15 0 8 7 15 15 15 8
0 15 7 15 15 0 8 7 15 15 15 8 0 15 7 15 15 0 8 7 15 15 15 8 0 15 7 15 15 0
8 7 15 15 15 8 0 15 7 15 15 0 8 7 15 15 15 8 0 15 7 15 15 0 10 10 15 29 15
16 0 34 7 41 15 8 10 30 15 61 15 37 0 49 -4 49 -15z m530 -480 c7 -8 19 -15
26 -15 8 0 14 -7 14 -15 0 -8 7 -15 15 -15 8 0 15 -7 15 -15 0 -8 7 -15 15
-15 8 0 15 -7 15 -15 0 -8 7 -15 15 -15 12 0 15 -17 15 -95 0 -78 -3 -95 -15
-95 -8 0 -15 -7 -15 -15 0 -8 -7 -15 -15 -15 -8 0 -15 -7 -15 -15 0 -8 -7 -15
-15 -15 -8 0 -15 -7 -15 -15 0 -8 -7 -15 -15 -15 -8 0 -15 -7 -15 -15 0 -8 -7
-15 -15 -15 -8 0 -15 -7 -15 -15 0 -8 -7 -15 -15 -15 -8 0 -15 -7 -15 -15 0
-8 -7 -15 -15 -15 -8 0 -15 -7 -15 -15 0 -8 -7 -15 -15 -15 -8 0 -15 -7 -15
-15 0 -8 -7 -15 -15 -15 -8 0 -15 -7 -15 -15 0 -8 -7 -15 -15 -15 -8 0 -15 -7
-15 -15 0 -8 -7 -15 -15 -15 -8 0 -15 -4 -15 -10 0 -5 -15 -24 -32 -43 -49
-50 -113 -128 -116 -143 -2 -8 -10 -14 -18 -14 -8 0 -14 -7 -14 -15 0 -8 -7
-15 -15 -15 -8 0 -15 -7 -15 -15 0 -8 -7 -15 -15 -15 -8 0 -15 -7 -15 -15 0
-8 -7 -15 -15 -15 -8 0 -16 -8 -16 -17 -1 -17 -2 -17 -6 0 -3 12 -15 17 -44
17 -28 0 -39 4 -39 15 0 10 -10 15 -30 15 -20 0 -30 5 -30 15 0 8 -4 15 -10
15 -12 0 -80 67 -80 79 0 5 -7 14 -15 21 -8 7 -15 24 -15 39 0 15 -5 32 -12
39 -9 9 -9 12 0 12 7 0 12 7 12 15 0 8 7 15 15 15 8 0 15 4 15 9 0 5 136 147
303 314 l302 305 46 1 c30 1 51 -4 59 -14z m490 -540 c0 -10 10 -15 30 -15 20
0 30 -5 30 -15 0 -8 7 -15 15 -15 9 0 15 -9 15 -25 0 -14 7 -28 15 -31 8 -4
15 -14 15 -24 0 -10 7 -23 15 -30 10 -8 15 -30 15 -61 0 -37 -4 -49 -15 -49
-8 0 -15 -9 -15 -20 0 -11 -4 -20 -10 -20 -5 0 -12 -11 -16 -25 -3 -14 -12
-25 -20 -25 -8 0 -14 -7 -14 -15 0 -8 -7 -15 -15 -15 -8 0 -15 -7 -15 -15 0
-8 -7 -15 -15 -15 -8 0 -15 -7 -15 -15 0 -8 -7 -15 -15 -15 -8 0 -15 -7 -15
-15 0 -8 -7 -15 -15 -15 -8 0 -15 -7 -15 -15 0 -8 -7 -15 -15 -15 -8 0 -15 -7
-15 -15 0 -8 -7 -15 -15 -15 -8 0 -15 -7 -15 -15 0 -8 -7 -15 -15 -15 -8 0
-15 -7 -15 -15 0 -8 -7 -15 -15 -15 -8 0 -15 -7 -15 -15 0 -8 -7 -15 -15 -15
-8 0 -15 -7 -15 -15 0 -8 -7 -15 -15 -15 -8 0 -15 -7 -15 -15 0 -8 -7 -15 -15
-15 -8 0 -15 -7 -15 -15 0 -8 -7 -15 -15 -15 -8 0 -15 -7 -15 -15 0 -8 -7 -15
-15 -15 -8 0 -15 -7 -15 -15 0 -10 -10 -15 -30 -15 -20 0 -30 -5 -30 -15 0
-22 -145 -22 -154 0 -3 8 -17 15 -31 15 -16 0 -25 6 -25 15 0 8 -6 15 -12 15
-14 1 -48 67 -48 93 0 9 -8 21 -17 26 -17 10 -17 10 0 11 9 0 17 7 17 15 0 8
7 15 15 15 8 0 15 7 15 15 0 8 7 15 15 15 8 0 15 7 15 15 0 8 7 15 15 15 8 0
15 7 15 15 0 8 7 15 15 15 8 0 15 7 15 15 0 8 7 15 15 15 8 0 15 7 15 15 0 8
7 15 15 15 8 0 15 7 15 15 0 8 7 15 15 15 8 0 15 7 15 15 0 8 7 15 15 15 8 0
15 7 15 15 0 8 7 15 15 15 8 0 15 7 15 15 0 8 7 15 15 15 8 0 15 4 15 9 0 5
45 55 100 110 55 55 100 105 100 111 0 5 7 10 15 10 8 0 15 7 15 15 0 8 7 15
15 15 8 0 15 7 15 15 0 8 7 15 15 15 8 0 15 7 15 15 0 10 11 15 35 15 24 0 35
-5 35 -15z"/>
</g>
</svg>
